<svg width="20" height="18" viewBox="0 0 20 18" fill="none" xmlns="http://www.w3.org/2000/svg">
<path d="M5.28125 3.83594L4.26172 6.75H15.7383L14.7188 3.83594C14.543 3.33594 14.0703 3 13.5391 3H6.46094C5.92969 3 5.45703 3.33594 5.28125 3.83594ZM1.54688 6.9375L2.92188 3.01172C3.44922 1.50781 4.86719 0.5 6.46094 0.5H13.5391C15.1328 0.5 16.5508 1.50781 17.0781 3.01172L18.4531 6.9375C19.3594 7.3125 20 8.20703 20 9.25V14.875V16.75C20 17.4414 19.4414 18 18.75 18H17.5C16.8086 18 16.25 17.4414 16.25 16.75V14.875H3.75V16.75C3.75 17.4414 3.19141 18 2.5 18H1.25C0.558594 18 0 17.4414 0 16.75V14.875V9.25C0 8.20703 0.640625 7.3125 1.54688 6.9375ZM5 10.5C5 10.1685 4.8683 9.85054 4.63388 9.61612C4.39946 9.3817 4.08152 9.25 3.75 9.25C3.41848 9.25 3.10054 9.3817 2.86612 9.61612C2.6317 9.85054 2.5 10.1685 2.5 10.5C2.5 10.8315 2.6317 11.1495 2.86612 11.3839C3.10054 11.6183 3.41848 11.75 3.75 11.75C4.08152 11.75 4.39946 11.6183 4.63388 11.3839C4.8683 11.1495 5 10.8315 5 10.5ZM16.25 11.75C16.5815 11.75 16.8995 11.6183 17.1339 11.3839C17.3683 11.1495 17.5 10.8315 17.5 10.5C17.5 10.1685 17.3683 9.85054 17.1339 9.61612C16.8995 9.3817 16.5815 9.25 16.25 9.25C15.9185 9.25 15.6005 9.3817 15.3661 9.61612C15.1317 9.85054 15 10.1685 15 10.5C15 10.8315 15.1317 11.1495 15.3661 11.3839C15.6005 11.6183 15.9185 11.75 16.25 11.75Z" fill="#082258"/>
</svg>
